<?xml version="1.0" encoding="UTF-8"?><svg id="b" xmlns="http://www.w3.org/2000/svg" viewBox="0 0 288.699996948 286.700012207"><g id="c"><path d="M285.040039062,265.359985352l-82.91003418-82.909973145c14.970031738-19.16998291,23.900024414-43.270019531,23.900024414-69.429992676C226.030029297,50.700012207,175.33001709,0,113.020019531,0,50.700012207,0,0,50.700012207,0,113.020019531c0,62.309997559,50.700012207,113.010009766,113.020019531,113.010009766,27.179992676,0,52.140014648-9.640014648,71.649963379-25.679992676l82.690002441,82.690002441c2.440002441,2.440002441,5.640014648,3.659973145,8.840026855,3.659973145s6.400024414-1.219970703,8.840026855-3.659973145c4.879943848-4.880004883,4.879943848-12.800048828,0-17.680053711ZM113.020019531,23.400024414c49.409973145,0,89.609985352,40.200012207,89.609985352,89.619995117,0,49.409973145-40.200012207,89.609985352-89.609985352,89.609985352-49.41998291,0-89.619995117-40.200012207-89.619995117-89.609985352,0-49.41998291,40.200012207-89.619995117,89.619995117-89.619995117Z" fill="#fff"/></g></svg>