<?xml version="1.0" encoding="UTF-8"?><svg id="Layer_1" xmlns="http://www.w3.org/2000/svg" viewBox="0 0 293.3 290.75"><defs><style>.cls-1{fill:#fff;}</style></defs><g id="Layer_2"><g id="Search"><path class="cls-1" d="M39.43,27.82C-8.21,69.05-13.41,141.1,27.82,188.74c41.23,47.64,113.28,52.84,160.92,11.6l95.7,89c.97,.91,2.26,1.42,3.59,1.41,1.47,0,2.86-.61,3.86-1.68,1.98-2.13,1.86-5.47-.27-7.45l-95.23-88.56c20.49-21.28,31.91-49.69,31.87-79.23C228.16,50.87,177.05-.09,114.09,0c-27.42,0-53.93,9.87-74.66,27.82ZM10.53,114.1h0c0-57.21,46.38-103.58,103.58-103.57,57.2,0,103.57,46.38,103.56,103.58,0,57.2-46.38,103.57-103.58,103.56-57.17-.07-103.5-46.4-103.56-103.57Z"/></g></g></svg>